<?xml version="1.0" encoding="UTF-8" standalone="no"?>
<!-- Created with Inkscape (http://www.inkscape.org/) -->

<svg
   xmlns:dc="http://purl.org/dc/elements/1.1/"
   xmlns:cc="http://creativecommons.org/ns#"
   xmlns:rdf="http://www.w3.org/1999/02/22-rdf-syntax-ns#"
   xmlns:svg="http://www.w3.org/2000/svg"
   xmlns="http://www.w3.org/2000/svg"
   xmlns:sodipodi="http://sodipodi.sourceforge.net/DTD/sodipodi-0.dtd"
   xmlns:inkscape="http://www.inkscape.org/namespaces/inkscape"
   width="35.400002mm"
   height="48mm"
   viewBox="0 0 35.400002 48"
   version="1.1"
   id="svg8"
   inkscape:version="0.92.3 (2405546, 2018-03-11)"
   sodipodi:docname="pin_grave.svg">
  <defs
     id="defs2" />
  <sodipodi:namedview
     id="base"
     pagecolor="#ffffff"
     bordercolor="#666666"
     borderopacity="1.0"
     inkscape:pageopacity="0.0"
     inkscape:pageshadow="2"
     inkscape:zoom="1.4142136"
     inkscape:cx="-215.50018"
     inkscape:cy="127.89947"
     inkscape:document-units="mm"
     inkscape:current-layer="layer1"
     showgrid="false"
     inkscape:window-width="1600"
     inkscape:window-height="832"
     inkscape:window-x="0"
     inkscape:window-y="0"
     inkscape:window-maximized="1" />
  <metadata
     id="metadata5">
    <rdf:RDF>
      <cc:Work
         rdf:about="">
        <dc:format>image/svg+xml</dc:format>
        <dc:type
           rdf:resource="http://purl.org/dc/dcmitype/StillImage" />
        <dc:title />
      </cc:Work>
    </rdf:RDF>
  </metadata>
  <g
     inkscape:label="Layer 1"
     inkscape:groupmode="layer"
     id="layer1"
     transform="translate(-64.457168,-25.54891)">
    <path
       style="fill:#c8b7b7;fill-opacity:1;stroke:none;stroke-width:0.26458332px;stroke-linecap:butt;stroke-linejoin:miter;stroke-opacity:1"
       d="m 82.157168,25.54891 c -9.8,0 -17.7,7.8 -17.7,17.4 0,15.5 17.7,30.6 17.7,30.6 0,0 17.7,-15.4 17.7,-30.6 0,-9.6 -7.9,-17.4 -17.7,-17.4 z"
       id="path869"
       inkscape:connector-curvature="0" />
    <path
       style="fill:#000000;fill-opacity:1;stroke:#000000;stroke-width:0.5902493;stroke-miterlimit:4;stroke-dasharray:none;stroke-opacity:1"
       d="m 82.159797,31.748518 c -3.615608,0 -6.547103,2.79151 -6.547103,6.235205 l -0.0044,12.921696 13.092948,-0.0047 0.0049,-12.91693 c 0,-3.443696 -2.930862,-6.235208 -6.54647,-6.235205 z m -0.902621,4.059164 1.798358,0.0077 -0.0069,2.400492 2.535955,-5.96e-4 -0.0087,1.712851 -2.520326,-0.0065 -0.0087,3.781129 -1.798358,0.0018 0.01687,-3.776368 -2.535952,0.0011 0.0087,-1.712853 2.520326,0.006 z"
       id="path837"
       inkscape:connector-curvature="0" />
  </g>
</svg>
