<?xml version="1.0" encoding="UTF-8" standalone="no"?>
<!-- Created with Inkscape (http://www.inkscape.org/) -->

<svg
   xmlns:dc="http://purl.org/dc/elements/1.1/"
   xmlns:cc="http://creativecommons.org/ns#"
   xmlns:rdf="http://www.w3.org/1999/02/22-rdf-syntax-ns#"
   xmlns:svg="http://www.w3.org/2000/svg"
   xmlns="http://www.w3.org/2000/svg"
   xmlns:sodipodi="http://sodipodi.sourceforge.net/DTD/sodipodi-0.dtd"
   xmlns:inkscape="http://www.inkscape.org/namespaces/inkscape"
   width="210mm"
   height="297mm"
   viewBox="0 0 210 297"
   version="1.1"
   id="svg8"
   inkscape:version="0.92.3 (2405546, 2018-03-11)"
   sodipodi:docname="pin_battle.svg"
   inkscape:export-filename="/home/david/Sites/covenanters/icons/pin_church.png"
   inkscape:export-xdpi="96"
   inkscape:export-ydpi="96">
  <defs
     id="defs2" />
  <sodipodi:namedview
     id="base"
     pagecolor="#ffffff"
     bordercolor="#666666"
     borderopacity="1.0"
     inkscape:pageopacity="0.0"
     inkscape:pageshadow="2"
     inkscape:zoom="1.4142136"
     inkscape:cx="369.62069"
     inkscape:cy="920.30579"
     inkscape:document-units="mm"
     inkscape:current-layer="layer1"
     showgrid="false"
     inkscape:window-width="1600"
     inkscape:window-height="832"
     inkscape:window-x="0"
     inkscape:window-y="0"
     inkscape:window-maximized="1" />
  <metadata
     id="metadata5">
    <rdf:RDF>
      <cc:Work
         rdf:about="">
        <dc:format>image/svg+xml</dc:format>
        <dc:type
           rdf:resource="http://purl.org/dc/dcmitype/StillImage" />
        <dc:title></dc:title>
      </cc:Work>
    </rdf:RDF>
  </metadata>
  <g
     inkscape:label="Layer 1"
     inkscape:groupmode="layer"
     id="layer1">
    <path
       style="fill:#c83737;fill-opacity:1;stroke:none;stroke-width:0.26458332px;stroke-linecap:butt;stroke-linejoin:miter;stroke-opacity:1"
       d="m 82.718434,25.54891 c -9.8,0 -17.7,7.8 -17.7,17.4 0,15.5 17.7,30.6 17.7,30.6 0,0 17.699996,-15.4 17.699996,-30.6 0,-9.6 -7.899996,-17.4 -17.699996,-17.4 z"
       id="path869"
       inkscape:connector-curvature="0" />
    <path
       style="fill:#000000;fill-opacity:1;stroke:#000000;stroke-width:0.09901621;stroke-miterlimit:4;stroke-dasharray:none;stroke-opacity:1"
       d="m 73.626628,34.222041 0.793531,3.913812 6.076976,4.906402 -2.452406,2.72856 1.492381,1.633383 3.181327,-2.568574 3.181317,2.568574 1.492381,-1.633383 -2.452396,-2.72856 6.076976,-4.906402 0.793521,-3.913812 -3.788582,0.447277 -5.303217,5.900983 -5.303228,-5.900983 z m 2.740578,10.574653 -1.080303,1.028111 1.334786,1.460896 -2.28395,2.173582 -0.708874,-0.775772 -0.945279,0.899667 2.778446,3.040857 0.94526,-0.899668 -0.709159,-0.775772 2.284235,-2.173867 1.33451,1.46061 1.080303,-1.02811 z m 12.702452,0 -4.029965,4.410534 1.080303,1.02811 1.33451,-1.46061 2.284225,2.173867 -0.709159,0.775772 0.94527,0.899668 2.778436,-3.040857 -0.94527,-0.899667 -0.708883,0.776055 -2.28394,-2.173865 1.334776,-1.460896 z"
       id="rect3397"
       inkscape:connector-curvature="0" />
  </g>
</svg>
