<?xml version="1.0" encoding="UTF-8" standalone="no"?>
<!-- Created with Inkscape (http://www.inkscape.org/) -->

<svg
   xmlns:dc="http://purl.org/dc/elements/1.1/"
   xmlns:cc="http://creativecommons.org/ns#"
   xmlns:rdf="http://www.w3.org/1999/02/22-rdf-syntax-ns#"
   xmlns:svg="http://www.w3.org/2000/svg"
   xmlns="http://www.w3.org/2000/svg"
   xmlns:sodipodi="http://sodipodi.sourceforge.net/DTD/sodipodi-0.dtd"
   xmlns:inkscape="http://www.inkscape.org/namespaces/inkscape"
   width="210mm"
   height="297mm"
   viewBox="0 0 210 297"
   version="1.1"
   id="svg8"
   inkscape:version="0.92.3 (2405546, 2018-03-11)"
   sodipodi:docname="pin_museum.svg"
   inkscape:export-filename="/home/david/Sites/covenanters/icons/pin_museum.png"
   inkscape:export-xdpi="25.929178"
   inkscape:export-ydpi="25.929178">
  <defs
     id="defs2" />
  <sodipodi:namedview
     id="base"
     pagecolor="#ffffff"
     bordercolor="#666666"
     borderopacity="1.0"
     inkscape:pageopacity="0.0"
     inkscape:pageshadow="2"
     inkscape:zoom="2.8284271"
     inkscape:cx="244.49607"
     inkscape:cy="959.19773"
     inkscape:document-units="mm"
     inkscape:current-layer="layer1"
     showgrid="false"
     inkscape:window-width="1600"
     inkscape:window-height="832"
     inkscape:window-x="0"
     inkscape:window-y="0"
     inkscape:window-maximized="1" />
  <metadata
     id="metadata5">
    <rdf:RDF>
      <cc:Work
         rdf:about="">
        <dc:format>image/svg+xml</dc:format>
        <dc:type
           rdf:resource="http://purl.org/dc/dcmitype/StillImage" />
        <dc:title />
      </cc:Work>
    </rdf:RDF>
  </metadata>
  <g
     inkscape:label="Layer 1"
     inkscape:groupmode="layer"
     id="layer1">
    <path
       style="fill:#5fd35f;fill-opacity:1;stroke:none;stroke-width:0.26458332px;stroke-linecap:butt;stroke-linejoin:miter;stroke-opacity:1"
       d="m 82.718434,25.54891 c -9.8,0 -17.7,7.8 -17.7,17.4 0,15.5 17.7,30.6 17.7,30.6 0,0 17.699996,-15.4 17.699996,-30.6 0,-9.6 -7.899996,-17.4 -17.699996,-17.4 z"
       id="path869"
       inkscape:connector-curvature="0" />
    <g
       id="g987"
       transform="translate(0.56225089,1.7197876)" />
    <path
       style="fill:#000000;fill-opacity:1;stroke:#000000;stroke-width:0.19068396;stroke-miterlimit:4;stroke-dasharray:none;stroke-opacity:1"
       d="M 82.718432,32.868493 71.27218,37.914492 h 22.892504 z m -0.03153,1.41968 c 0.774961,-10e-7 1.403192,0.628229 1.403192,1.40319 0,0.774961 -0.62823,1.403191 -1.403191,1.403191 -0.774961,0 -1.403191,-0.62823 -1.403191,-1.403191 0,-0.77496 0.62823,-1.40319 1.40319,-1.40319 z m -9.081324,4.385557 v 1.164236 h 1.734281 v 7.946158 h -1.734281 l -0.0058,1.285869 h -2.121044 l -0.0083,2.015216 H 93.93873 l 0.0083,-2.015216 h -2.121538 l 0.0058,-1.285869 h -1.734281 v -7.946158 h 1.734281 V 38.67373 Z m 4.130742,1.164236 h 3.783885 v 7.946158 H 77.73632 Z m 6.180345,0 h 3.78388 v 7.946158 h -3.783884 z"
       id="rect1006"
       inkscape:connector-curvature="0"
       sodipodi:nodetypes="ccccsssssccccccccccccccccccccccccccc" />
  </g>
</svg>
